<svg width="797" height="165" viewBox="0 0 797 165" fill="none" xmlns="http://www.w3.org/2000/svg">
<g clip-path="url(#clip0_204_1442)">
<path d="M782.431 109.979C783.365 108.983 784.05 107.49 784.05 105.311C784.05 103.133 783.054 101.328 781.622 100.207C780.19 99.1493 778.259 98.6514 775.769 98.6514H767.8V120.871H773.03V112.344H774.648L779.318 120.871H785.357L779.692 111.66C780.501 111.411 781.559 110.913 782.431 109.917V109.979ZM777.637 107.801C777.014 108.299 776.143 108.423 774.96 108.423H772.905V102.697H774.96C776.143 102.697 777.014 102.821 777.637 103.257C778.322 103.755 778.758 104.378 778.758 105.498C778.758 106.618 778.322 107.241 777.637 107.738V107.801Z" fill="#0025DE"/>
<path d="M774.96 88.1328C762.819 88.1328 752.919 98.0291 752.919 110.166C752.919 122.303 762.819 132.199 774.96 132.199C787.101 132.199 797 122.303 797 110.166C797 98.0291 787.101 88.1328 774.96 88.1328ZM774.96 128.278C764.998 128.278 756.842 120.187 756.842 110.166C756.842 100.145 764.936 92.054 774.96 92.054C784.984 92.054 793.078 100.145 793.078 110.166C793.078 120.187 784.984 128.278 774.96 128.278Z" fill="#0025DE"/>
<path d="M21.729 88.3813H9.21456C7.77036 88.3813 6.59961 89.5517 6.59961 90.9955V161.141C6.59961 162.584 7.77036 163.755 9.21456 163.755H21.729C23.1732 163.755 24.3439 162.584 24.3439 161.141V90.9955C24.3439 89.5517 23.1732 88.3813 21.729 88.3813Z" fill="#0025DE"/>
<path d="M114.871 88.3816H102.917C101.485 88.3816 100.302 89.5642 100.302 90.9957V134.004L65.9964 89.3774C65.4983 88.755 64.7511 88.3193 63.8795 88.3193H48.1898C46.7578 88.3193 45.5748 89.5019 45.5748 90.9334V161.016C45.5748 162.448 46.7578 163.631 48.1898 163.631H60.1438C61.5758 163.631 62.7588 162.448 62.7588 161.016V112.718L101.111 162.635C101.61 163.257 102.357 163.693 103.228 163.693H114.871C116.303 163.693 117.486 162.51 117.486 161.079V90.9957C117.486 89.5642 116.303 88.3816 114.871 88.3816Z" fill="#0025DE"/>
<path d="M173.272 88.3813H141.332C139.9 88.3813 138.717 89.5639 138.717 90.9955V161.078C138.717 162.51 139.9 163.693 141.332 163.693H173.272C196.868 163.693 212.122 148.879 212.122 126.037C212.122 103.195 196.868 88.3813 173.272 88.3813ZM156.461 104.377H171.964C186.097 104.377 194.191 112.282 194.191 126.037C194.191 139.792 186.097 147.697 171.964 147.697H156.461V104.315V104.377Z" fill="#0025DE"/>
<path d="M244.809 88.3813H232.295C230.851 88.3813 229.68 89.5517 229.68 90.9955V161.141C229.68 162.584 230.851 163.755 232.295 163.755H244.809C246.253 163.755 247.424 162.584 247.424 161.141V90.9955C247.424 89.5517 246.253 88.3813 244.809 88.3813Z" fill="#0025DE"/>
<path d="M333.469 88.3813H271.332C269.9 88.3813 268.717 89.5639 268.717 90.9955V161.078C268.717 162.51 269.9 163.693 271.332 163.693H333.469C334.901 163.693 336.084 162.51 336.084 161.078V150.373C336.084 148.942 334.901 147.759 333.469 147.759H286.399V133.755H326.744C328.176 133.755 329.359 132.572 329.359 131.141V120.435C329.359 119.004 328.176 117.821 326.744 117.821H286.399V104.439H333.469C334.901 104.439 336.084 103.257 336.084 101.825V91.1199C336.084 89.6884 334.901 88.5058 333.469 88.5058V88.3813Z" fill="#0025DE"/>
<path d="M480.653 88.3813H468.076C466.893 88.3813 465.897 89.1282 465.524 90.2486L452.262 134.253L438.565 90.2486C438.191 89.1282 437.195 88.3813 436.012 88.3813H424.867C423.684 88.3813 422.688 89.1282 422.315 90.2486L408.617 134.253L395.356 90.2486C395.045 89.1282 393.986 88.3813 392.803 88.3813H379.728C378.857 88.3813 378.11 88.7548 377.611 89.4394C377.113 90.1241 376.989 90.9955 377.238 91.8046L399.216 161.888C399.59 163.008 400.586 163.755 401.769 163.755H414.159C415.341 163.755 416.338 163.008 416.711 161.888L430.346 118.07L443.981 161.888C444.355 163.008 445.351 163.755 446.534 163.755H458.8C459.982 163.755 460.979 163.008 461.352 161.888L483.33 91.8046C483.579 90.9955 483.455 90.1241 482.957 89.4394C482.459 88.7548 481.649 88.3813 480.84 88.3813H480.653Z" fill="#0025DE"/>
<path d="M563.771 88.3813H501.635C500.203 88.3813 499.02 89.5639 499.02 90.9955V161.078C499.02 162.51 500.203 163.693 501.635 163.693H563.771C565.203 163.693 566.386 162.51 566.386 161.078V150.373C566.386 148.942 565.203 147.759 563.771 147.759H516.702V133.755H557.047C558.479 133.755 559.662 132.572 559.662 131.141V120.435C559.662 119.004 558.479 117.821 557.047 117.821H516.702V104.439H563.771C565.203 104.439 566.386 103.257 566.386 101.825V91.1199C566.386 89.6884 565.203 88.5058 563.771 88.5058V88.3813Z" fill="#0025DE"/>
<path d="M617.565 117.386C600.879 116.141 599.509 113.713 599.509 110.85C599.509 103.942 611.276 103.382 614.887 103.382C623.791 103.382 631.511 105.622 637.799 110.104C638.422 110.539 639.231 110.726 639.978 110.539C640.726 110.352 641.348 109.855 641.722 109.17L646.64 99.4604C647.263 98.2778 646.889 96.8463 645.831 96.0994C637.363 90.1865 627.028 87.1367 615.012 87.1367C594.03 87.1367 581.516 96.1616 581.516 111.348C581.516 128.402 594.777 132.946 614.701 134.502C631.449 135.747 632.881 138.299 632.881 141.037C632.881 147.448 623.479 148.817 615.634 148.817C605.424 148.817 595.898 145.83 587.991 140.228C587.368 139.792 586.621 139.606 585.874 139.792C585.127 139.979 584.504 140.415 584.13 141.099L578.776 150.996C578.153 152.178 578.465 153.61 579.585 154.419C589.236 161.328 601.75 165 615.759 165C646.329 165 650.874 149.626 650.874 140.539C650.874 123.485 637.55 118.942 617.627 117.386H617.565Z" fill="#0025DE"/>
<path d="M731.066 88.3813H664.385C662.953 88.3813 661.77 89.5639 661.77 90.9955V101.701C661.77 103.132 662.953 104.315 664.385 104.315H688.853V161.016C688.853 162.448 690.036 163.63 691.468 163.63H703.92C705.352 163.63 706.535 162.448 706.535 161.016V104.315H731.004C732.436 104.315 733.619 103.132 733.619 101.701V90.9955C733.619 89.5639 732.436 88.3813 731.004 88.3813H731.066Z" fill="#0025DE"/>
<path d="M44.5787 25.2699C44.5787 36.9711 36.9206 48.9213 17.2462 48.9213H2.24139C0.933912 48.9213 0 48.4856 0 47.4898C0 46.6184 0.622608 46.245 1.432 45.8093C2.55269 45.1869 3.23756 44.3777 3.61112 43.4441C3.98469 42.5105 4.29599 41.2657 4.29599 36.7844V11.7636C4.29599 8.46488 4.29599 7.03334 2.49043 5.91301C1.432 5.29061 0.373565 5.04164 0.373565 3.98355C0.373565 3.17442 0.996172 2.61426 2.30365 2.61426H13.137C24.4685 2.61426 30.1342 4.04579 34.8038 6.84662C41.2789 10.7055 44.5787 17.801 44.5787 25.2076V25.2699ZM35.2396 25.7678C35.2396 20.3528 33.8699 12.5728 27.0212 8.96281C23.8459 7.28231 20.2347 6.9711 14.5068 6.9711C13.1993 6.9711 12.888 7.40679 12.888 8.52712V37.469C12.888 41.4524 12.888 42.9462 13.8841 43.7553C14.569 44.3155 15.8765 44.44 17.433 44.44C22.7874 44.44 27.6438 43.0084 30.8813 39.3985C33.9321 36.0375 35.2396 31.0582 35.2396 25.83V25.7678Z" fill="#0025DE"/>
<path d="M77.9505 41.7636C77.9505 43.1329 76.0204 45.2491 73.779 46.6806C70.9773 48.4856 67.3662 49.5437 63.755 49.5437C57.6535 49.5437 51.5519 46.6806 48.937 39.7719C48.1899 37.6557 47.6918 35.2906 47.6918 32.9877C47.6918 26.5146 50.8048 19.8549 57.0931 16.3694C59.3968 15.0623 62.074 14.4399 64.7512 14.4399C68.1133 14.4399 71.3509 15.498 73.9036 17.552C77.3279 20.415 78.6354 24.274 78.6354 27.0748C78.6354 29.8756 77.7637 31.5561 73.3432 31.5561H56.8441C56.346 31.5561 56.097 31.8051 56.097 32.2408C56.097 33.2989 56.2215 36.6599 58.3384 39.5852C60.5175 42.635 63.6305 43.7553 66.7436 43.7553C72.7829 43.7553 74.8997 40.4565 76.643 40.4565C77.5769 40.4565 78.0128 41.1412 78.0128 41.8258L77.9505 41.7636ZM56.7196 27.4482H65.7474C68.985 27.4482 70.5415 26.7014 70.5415 24.274C70.5415 21.5354 68.3001 18.3611 64.0664 18.3611C58.0271 18.3611 56.097 25.2698 56.097 26.7636C56.097 27.2615 56.2215 27.386 56.7196 27.386V27.4482Z" fill="#0025DE"/>
<path d="M83.4295 37.0955C84.8615 37.0955 85.4218 38.2781 87.1651 40.5187C89.5933 43.693 92.146 45.3113 94.8854 45.3113C98.6211 45.3113 100.862 43.2573 100.862 40.83C100.862 39.2739 100.115 37.7802 97.3136 36.6598C94.0138 35.3528 88.6594 34.4814 85.2973 31.5561C83.4917 30.0001 82.5578 27.7594 82.5578 25.332C82.5578 21.971 84.4256 18.3611 88.2858 16.1826C90.714 14.8134 93.6402 14.3154 96.3797 14.3154C99.7418 14.3154 102.73 15.0623 104.162 15.9959C106.404 17.3652 106.715 19.6681 106.715 21.3486C106.715 23.0291 106.528 25.2075 104.723 25.2075C103.54 25.2075 103.104 24.8963 102.419 23.7138C101.174 21.7843 99.1814 18.4233 95.0722 18.4233C91.8969 18.4233 89.9046 20.2905 89.9046 22.5934C89.9046 24.7096 91.5856 25.9544 94.8232 27.0125C98.9947 28.3818 103.228 29.2532 106.03 32.2407C107.587 33.859 108.458 36.0374 108.458 38.3403C108.458 41.3901 106.964 44.6889 103.602 46.8673C100.738 48.7968 97.2514 49.5436 94.0138 49.5436C89.4065 49.5436 85.2973 48.1121 83.554 46.5561C82.1843 45.249 81.5616 42.6349 81.5616 39.8963C81.5616 37.469 82.6201 37.0333 83.6163 37.0333L83.4295 37.0955Z" fill="#0025DE"/>
<path d="M127.821 47.4274C127.821 48.4232 126.825 48.8589 125.705 48.8589H113.252C112.069 48.8589 111.136 48.4232 111.136 47.4274C111.136 46.6805 111.696 46.1826 112.505 45.7469C113.564 45.1867 114.373 44.3776 114.747 43.5062C115.182 42.5104 115.494 41.0788 115.494 36.6597V26.7012C115.494 24.3983 115.494 22.9668 114.996 21.971C114.56 21.0996 113.875 20.6017 112.754 20.166C111.945 19.8548 111.011 19.4813 111.011 18.61C111.011 17.8631 111.447 17.3029 112.941 16.9917C115.182 16.556 117.673 15.8091 119.354 15.1867C120.599 14.751 121.159 14.4398 121.969 14.4398C122.903 14.4398 123.525 14.8755 123.525 16.3693V36.722C123.525 41.2033 123.837 42.6349 124.335 43.5062C124.771 44.4398 125.58 45.1867 126.514 45.8714C127.261 46.3693 127.884 46.805 127.884 47.5519L127.821 47.4274ZM119.416 10.7676C117.673 10.7676 114.062 7.09544 114.062 5.41494C114.062 3.73444 117.673 0 119.416 0C121.159 0 124.833 3.6722 124.833 5.41494C124.833 7.15768 121.159 10.7676 119.416 10.7676Z" fill="#0025DE"/>
<path d="M158.329 20.8507C158.329 20.8507 157.831 20.8507 157.395 20.7884C158.454 22.5934 158.765 24.6473 158.765 26.5768C158.765 33.4855 152.912 38.4648 145.628 38.776C144.756 38.8382 143.449 38.8382 142.764 38.9005C141.083 39.0872 139.962 39.7718 139.962 40.8299C139.962 41.888 141.207 42.6349 144.134 42.8216C147.247 43.0706 150.858 42.7594 154.22 43.1951C159.325 43.8175 162.002 46.805 162.002 50.5395C162.002 51.4108 161.878 52.22 161.629 53.0913C160.197 57.7594 155.092 61.3693 144.694 61.3693C138.904 61.3693 134.296 60.1868 131.681 58.1328C129.938 56.7635 129.253 54.9586 129.253 53.3403C129.253 52.3444 129.502 51.4108 129.938 50.6017C131.059 48.7345 132.989 47.6142 134.732 47.6142C135.853 47.6142 136.538 48.0498 136.538 48.7967C136.538 49.7926 135.728 50.3527 135.728 51.971C135.728 55.2075 139.34 57.4482 145.628 57.4482C151.916 57.4482 155.403 55.2698 155.403 52.6557C155.403 50.7884 153.784 49.9171 150.546 49.7926C147.309 49.6681 143.511 49.7926 140.273 49.2947C135.666 48.61 133.3 46.0581 133.3 43.3195C133.3 40.7677 135.293 38.6515 137.908 37.5934C138.032 37.5934 138.094 37.4689 138.094 37.4067C138.094 37.2822 138.032 37.22 137.908 37.1577C133.923 35.2283 131.183 31.6183 131.183 26.7013C131.183 19.9793 137.16 14.3776 144.943 14.3154C147.745 14.3154 150.297 14.9378 152.85 16.3071C154.22 16.9917 154.718 17.4274 155.278 17.4274C157.271 17.4274 156.71 14.1909 159.574 14.1909C161.504 14.1909 162.625 15.0623 162.625 17.303C162.625 19.4191 161.006 20.7884 158.329 20.7884V20.8507ZM139.402 25.2698C139.402 31.5561 142.515 34.7926 145.379 34.7926C148.741 34.7926 150.546 31.6183 150.546 27.5727C150.546 23.0291 148.616 18.2988 144.632 18.2988C140.958 18.2988 139.402 21.6598 139.402 25.2698Z" fill="#0025DE"/>
<path d="M203.904 47.365C203.904 48.4231 202.908 48.8588 201.725 48.8588H189.273C188.09 48.8588 187.156 48.4231 187.156 47.365C187.156 46.5559 187.778 46.1824 188.526 45.7467C189.584 45.1243 190.331 44.3152 190.767 43.3816C191.203 42.448 191.514 41.0787 191.514 36.5351V27.448C191.514 23.0289 189.21 20.477 185.412 20.477C183.794 20.477 181.988 20.975 180.556 22.4065C178.252 24.7094 177.568 28.2571 177.568 36.5351C177.568 41.0787 177.879 42.5102 178.315 43.3816C178.751 44.3774 179.56 45.1243 180.494 45.7467C181.366 46.2447 181.864 46.5559 181.864 47.365C181.864 48.4231 180.93 48.8588 179.747 48.8588H167.481C166.236 48.8588 165.365 48.4231 165.365 47.365C165.365 46.5559 165.987 46.1824 166.734 45.7467C167.668 45.1866 168.54 44.3774 168.976 43.3816C169.349 42.448 169.661 41.0787 169.661 36.5351V26.6389C169.661 24.3359 169.661 22.9044 169.162 21.8463C168.727 20.9127 167.979 20.477 166.921 20.1036C166.298 19.8546 165.115 19.5434 165.115 18.5476C165.115 17.8007 165.614 17.2405 167.108 16.9293C169.287 16.4936 171.777 15.809 173.458 15.1243C174.455 14.7509 175.077 14.3774 176.011 14.3774C176.945 14.3774 177.63 14.8131 177.63 16.3069V19.9169C177.63 19.9169 177.63 20.2281 177.879 20.2281C178.003 20.2281 178.066 20.1036 178.19 19.9169C180.494 16.4936 184.23 14.3774 188.65 14.3774C192.199 14.3774 195.499 15.8712 197.429 18.7343C198.861 20.8505 199.421 23.4646 199.421 27.448V36.5974C199.421 41.1409 199.732 42.5725 200.168 43.4438C200.604 44.3774 201.351 45.1866 202.347 45.809C203.219 46.2447 203.779 46.6181 203.779 47.4272L203.904 47.365Z" fill="#0025DE"/>
<path d="M237.463 29.9377H233.229C232.669 29.9377 232.544 30.3111 232.544 30.809V36.6597C232.544 41.2032 232.855 42.5725 233.353 43.5061C233.851 44.4398 234.599 45.1244 235.533 45.7468C236.342 46.2447 236.902 46.6804 236.902 47.4273C236.902 48.4232 235.968 48.8588 234.785 48.8588H221.773C220.528 48.8588 219.594 48.4232 219.594 47.4273C219.594 46.6804 220.154 46.2447 221.026 45.7468C222.022 45.1866 222.769 44.4398 223.205 43.5061C223.641 42.5725 223.89 41.2032 223.89 36.6597V10.6431C223.89 8.09121 223.765 6.90863 222.084 5.97502C221.026 5.41486 219.967 5.10366 219.967 4.04556C219.967 3.23644 220.59 2.67627 221.96 2.67627H234.972C242.693 2.67627 248.919 2.67627 253.152 6.90863C255.58 9.33602 256.577 12.697 256.577 15.7468C256.577 17.863 256.141 19.7925 255.394 21.3485C252.716 27.0746 246.802 29.9377 237.463 29.9377ZM247.549 16.1825C247.549 14.1908 246.988 12.0124 245.681 10.4564C243.502 7.71776 240.389 6.97088 236.093 6.97088H233.665C232.793 6.97088 232.544 7.34432 232.544 8.09121V24.6472C232.544 25.2074 232.793 25.5186 233.478 25.5186H235.906C241.011 25.5186 244.311 24.336 246.241 21.224C247.051 19.9169 247.549 18.0497 247.549 16.1825Z" fill="#0025DE"/>
<path d="M284.469 19.6679C284.469 21.6596 283.535 23.0911 281.854 23.0911C280.983 23.0911 280.298 22.7799 279.426 22.2198C278.492 21.7218 277.87 21.4106 276.998 21.4106C276.002 21.4106 275.068 21.8463 274.134 22.7799C272.702 24.2115 270.834 26.7011 270.834 36.5974C270.834 41.1409 271.146 42.5102 271.581 43.4438C272.017 44.3774 272.827 45.1243 273.761 45.6845C274.57 46.1824 275.13 46.6181 275.13 47.365C275.13 48.3608 274.196 48.7965 273.013 48.7965H260.623C259.378 48.7965 258.507 48.3608 258.507 47.365C258.507 46.6181 259.067 46.1202 259.876 45.6845C260.873 45.1243 261.62 44.3774 262.055 43.4438C262.491 42.5102 262.803 41.0164 262.803 36.5974V26.5766C262.803 24.2737 262.678 22.8422 262.18 21.8463C261.744 21.0372 261.122 20.5393 260.001 20.1036C259.316 19.8546 258.195 19.4812 258.195 18.5476C258.195 17.6762 258.756 17.1783 260.125 16.8671C262.616 16.3069 264.67 15.7467 266.974 14.7509C267.659 14.4397 268.095 14.3774 268.531 14.3774C269.527 14.3774 270.212 14.9376 270.212 16.3069V21.3484C270.212 21.3484 270.212 21.5974 270.336 21.5974C270.336 21.5974 270.336 21.5974 270.461 21.4106C271.893 18.2986 275.566 14.3774 279.613 14.3774C281.17 14.3774 282.352 14.8754 283.1 15.7467C284.096 16.8048 284.407 18.4231 284.407 19.6679H284.469Z" fill="#0025DE"/>
<path d="M318.028 31.8048C318.028 41.5144 310.681 49.6057 300.906 49.6057C291.131 49.6057 283.785 42.8214 283.785 32.2405C283.785 22.4687 291.007 14.5019 301.031 14.3774C311.74 14.3774 318.028 21.9086 318.028 31.8048ZM300.346 18.4231C295.614 18.4231 292.314 22.4687 292.314 29.6886C292.314 37.9044 295.552 45.4978 301.591 45.4978C306.759 45.4978 309.56 40.4563 309.56 33.921C309.56 26.6389 306.759 18.4231 300.346 18.4231Z" fill="#0025DE"/>
<path d="M358.498 45.3733C358.498 46.2447 358.062 46.6181 356.505 46.9916C353.828 47.614 351.151 48.4231 348.972 49.2322C348.598 49.3567 348.1 49.5434 347.54 49.5434C346.793 49.5434 346.045 49.1077 346.045 47.614V44.5642C346.045 44.1285 345.859 44.004 345.61 44.004C345.485 44.004 345.298 44.0662 345.111 44.3152C342.559 47.4272 338.823 49.5434 334.714 49.5434C332.846 49.5434 330.916 49.1077 328.924 48.1119C323.632 45.3733 321.328 39.6472 321.328 33.7343C321.328 23.4023 327.928 14.3152 337.516 14.3152C340.317 14.3152 343.057 15.0621 345.547 16.3692C345.672 16.3692 345.734 16.3692 345.796 16.3692C345.921 16.3692 346.045 16.2447 346.045 16.058V12.697C346.045 10.3941 345.983 8.96252 345.485 7.90443C345.111 7.0953 344.489 6.59737 343.306 6.16169C342.434 5.85048 341.5 5.47704 341.5 4.60567C341.5 3.7343 341.936 3.36086 343.43 2.98741C346.17 2.36501 348.349 1.68036 350.217 0.995713C351.338 0.622269 351.711 0.435547 352.396 0.435547C353.205 0.435547 353.89 0.871232 353.89 2.36501V37.1575C353.89 39.4604 353.89 40.9542 354.388 41.9501C354.824 42.8214 355.571 43.2571 356.63 43.6928C357.501 44.004 358.435 44.4397 358.435 45.2488L358.498 45.3733ZM346.045 31.4314C346.045 23.1534 342.621 18.4853 337.765 18.4853C332.535 18.4853 329.546 23.4023 329.546 31.0579C329.546 38.2779 332.846 43.755 337.951 43.755C342.31 43.755 346.045 40.1451 346.045 31.4314Z" fill="#0025DE"/>
<path d="M399.154 45.3736C399.154 46.2449 398.656 46.7428 397.224 47.054C394.422 47.6765 391.682 48.5478 389.628 49.2947C389.317 49.4192 388.818 49.5437 388.32 49.5437C387.386 49.5437 386.639 49.108 386.639 47.6142V43.942C386.639 43.942 386.639 43.693 386.452 43.693C386.39 43.693 386.328 43.6931 386.203 43.8798C383.651 47.6142 379.791 49.6059 375.557 49.6059C372.195 49.6059 368.957 48.2366 366.965 45.4358C365.346 43.1951 364.848 40.2698 364.848 36.5976V26.6391C364.848 24.3362 364.848 22.9669 364.35 21.9088C363.914 20.9752 363.167 20.5395 362.046 20.1661C361.361 19.9171 360.241 19.5437 360.241 18.6101C360.241 17.7387 360.739 17.303 362.233 16.9918C364.973 16.3694 367.401 15.6225 369.642 14.8134C370.14 14.6267 370.763 14.4399 371.261 14.4399C372.133 14.4399 372.817 14.8756 372.817 16.3694V36.5354C372.817 41.1412 375.059 43.4441 378.857 43.4441C380.475 43.4441 382.281 42.9462 383.651 41.5769C385.83 39.3984 386.702 35.6018 386.702 27.386C386.702 24.4607 386.702 22.9047 386.141 21.9088C385.768 21.0997 384.958 20.5395 383.9 20.1661C383.215 19.9171 382.157 19.5437 382.157 18.6101C382.157 17.7387 382.592 17.303 384.087 16.9918C386.888 16.3694 389.503 15.5603 391.558 14.8134C392.056 14.6267 392.616 14.4399 393.114 14.4399C393.986 14.4399 394.671 14.8756 394.671 16.3694V37.4067C394.671 39.7719 394.795 41.1412 395.231 42.137C395.605 43.0084 396.352 43.5063 397.473 43.942C398.282 44.2532 399.216 44.5022 399.216 45.4358L399.154 45.3736Z" fill="#0025DE"/>
<path d="M417.209 49.6057C411.232 49.6057 405.318 46.6803 402.889 39.8339C402.267 38.0289 401.893 35.975 401.893 33.7965C401.893 27.3857 404.882 20.3525 411.295 16.6181C413.847 15.1243 416.836 14.3774 420.198 14.3774C422.875 14.3774 426.673 14.9376 428.416 16.8048C429.475 17.8629 429.724 19.6679 429.724 21.1617C429.724 22.282 429.662 23.0911 429.537 23.6513C429.288 24.8961 428.665 25.4563 427.42 25.4563C426.673 25.4563 426.175 25.0828 425.677 24.3359C425.179 23.5891 424.307 21.9708 423.373 20.7882C422.19 19.4189 420.634 18.3608 418.392 18.3608C413.412 18.3608 410.236 23.3401 410.236 29.7509C410.236 32.0538 410.61 35.0413 411.419 36.9086C413.847 42.8837 418.019 43.8173 420.883 43.8173C423.747 43.8173 426.3 42.2613 427.794 41.1409C428.479 40.643 429.039 40.2696 429.537 40.2696C430.222 40.2696 430.845 40.8297 430.845 41.5766C430.845 42.1368 430.595 42.7592 430.222 43.3193C427.669 47.116 422.813 49.4189 417.334 49.4189L417.209 49.6057Z" fill="#0025DE"/>
<path d="M458.177 42.7594C458.177 43.3818 457.866 44.0664 457.43 44.6888C455.686 47.4274 452.138 49.5436 447.966 49.5436C443.795 49.5436 440.993 47.4897 439.623 45.0623C438.44 42.9461 438.129 40.3942 438.129 37.0955C438.129 32.1162 438.627 25.7677 438.627 21.0996C438.627 20.6639 438.44 20.4772 438.004 20.4772H434.02C433.522 20.4772 433.086 20.166 433.086 19.5436V17.1162C433.086 16.5561 433.397 16.2449 434.02 16.1204C437.444 15.498 439.125 14.1909 439.997 12.5727C440.619 11.2656 440.868 9.70958 441.18 8.09132C441.304 7.46892 441.616 7.15771 442.176 7.15771H445.663C446.161 7.15771 446.534 7.46892 446.534 8.02908V14.4399C446.534 15.8714 446.721 16.1204 448.153 16.1204C451.577 16.1204 452.947 15.6847 455.375 15.6847C456.558 15.6847 457.554 15.6847 457.554 16.9295C457.554 17.3652 457.368 17.8631 457.305 18.4233C457.056 20.2905 456.185 20.6639 454.317 20.6639C452.449 20.6639 450.768 20.415 447.219 20.415C446.783 20.415 446.534 20.6639 446.534 21.0996C446.534 23.527 446.41 26.2656 446.41 28.8797C446.41 33.7967 446.596 38.3403 447.406 40.4565C448.402 43.0706 450.394 43.693 451.889 43.693C454.753 43.693 455.873 41.5146 457.243 41.5146C457.928 41.5146 458.426 41.9502 458.426 42.6971L458.177 42.7594Z" fill="#0025DE"/>
<path d="M477.042 47.4274C477.042 48.4232 476.046 48.8589 474.925 48.8589H462.473C461.29 48.8589 460.356 48.4232 460.356 47.4274C460.356 46.6805 460.916 46.1826 461.726 45.7469C462.784 45.1867 463.594 44.3776 463.967 43.5062C464.403 42.5104 464.714 41.0788 464.714 36.6597V26.7012C464.714 24.3983 464.714 22.9668 464.216 21.971C463.78 21.0996 463.096 20.6017 461.975 20.166C461.165 19.8548 460.232 19.4813 460.232 18.61C460.232 17.8631 460.667 17.3029 462.162 16.9917C464.403 16.556 466.893 15.8091 468.575 15.1867C469.82 14.751 470.38 14.4398 471.189 14.4398C472.123 14.4398 472.746 14.8755 472.746 16.3693V36.722C472.746 41.2033 473.057 42.6349 473.493 43.5062C473.929 44.4398 474.738 45.1867 475.672 45.8714C476.419 46.3693 477.042 46.805 477.042 47.5519V47.4274ZM468.637 10.7676C466.893 10.7676 463.282 7.09544 463.282 5.41494C463.282 3.73444 466.893 0 468.637 0C470.38 0 474.053 3.6722 474.053 5.41494C474.053 7.15768 470.38 10.7676 468.637 10.7676Z" fill="#0025DE"/>
<path d="M514.025 31.8048C514.025 41.5144 506.678 49.6057 496.841 49.6057C487.004 49.6057 479.719 42.8214 479.719 32.2405C479.719 22.4687 487.004 14.5019 496.965 14.3774C507.674 14.3774 514.025 21.9086 514.025 31.8048ZM496.343 18.4231C491.611 18.4231 488.311 22.4687 488.311 29.6886C488.311 37.9044 491.549 45.4978 497.588 45.4978C502.756 45.4978 505.557 40.4563 505.557 33.921C505.557 26.6389 502.756 18.4231 496.343 18.4231Z" fill="#0025DE"/>
<path d="M555.926 47.365C555.926 48.4231 554.93 48.8588 553.747 48.8588H541.295C540.112 48.8588 539.178 48.4231 539.178 47.365C539.178 46.5559 539.801 46.1824 540.548 45.7467C541.606 45.1243 542.354 44.3152 542.789 43.3816C543.225 42.448 543.537 41.0787 543.537 36.5351V27.448C543.537 23.0289 541.233 20.477 537.435 20.477C535.816 20.477 534.011 20.975 532.579 22.4065C530.275 24.7094 529.59 28.2571 529.59 36.5351C529.59 41.0787 529.901 42.5102 530.337 43.3816C530.773 44.3774 531.582 45.1243 532.516 45.7467C533.388 46.2447 533.886 46.5559 533.886 47.365C533.886 48.4231 532.952 48.8588 531.769 48.8588H519.504C518.259 48.8588 517.387 48.4231 517.387 47.365C517.387 46.5559 518.01 46.1824 518.757 45.7467C519.691 45.1866 520.562 44.3774 520.998 43.3816C521.372 42.448 521.683 41.0787 521.683 36.5351V26.6389C521.683 24.3359 521.683 22.9044 521.185 21.8463C520.749 20.9127 520.002 20.477 518.944 20.1036C518.321 19.8546 517.138 19.5434 517.138 18.5476C517.138 17.8007 517.636 17.2405 519.13 16.9293C521.309 16.4936 523.8 15.809 525.481 15.1243C526.477 14.7509 527.1 14.3774 528.034 14.3774C528.967 14.3774 529.652 14.8131 529.652 16.3069V19.9169C529.652 19.9169 529.652 20.2281 529.901 20.2281C530.026 20.2281 530.088 20.1036 530.213 19.9169C532.516 16.4936 536.252 14.3774 540.673 14.3774C544.221 14.3774 547.521 15.8712 549.451 18.7343C550.883 20.8505 551.444 23.4646 551.444 27.448V36.5974C551.444 41.1409 551.755 42.5725 552.191 43.4438C552.627 44.3774 553.374 45.1866 554.37 45.809C555.242 46.2447 555.802 46.6181 555.802 47.4272L555.926 47.365Z" fill="#0025DE"/>
</g>
<defs>
<clipPath id="clip0_204_1442">
<rect width="797" height="165" fill="white"/>
</clipPath>
</defs>
</svg>
