<svg width="199" height="20" viewBox="0 0 199 20" fill="none" xmlns="http://www.w3.org/2000/svg">
<path d="M195.332 5.75094C195.567 5.50021 195.739 5.12412 195.739 4.57566C195.739 4.02719 195.489 3.57275 195.128 3.29069C194.768 3.02429 194.282 2.89893 193.655 2.89893H191.648V8.49326H192.965V6.34641H193.372L194.548 8.49326H196.069L194.642 6.17404C194.846 6.11136 195.112 5.98599 195.332 5.73527V5.75094ZM194.125 5.20247C193.968 5.32784 193.749 5.35918 193.451 5.35918H192.934V3.9175H193.451C193.749 3.9175 193.968 3.94884 194.125 4.05854C194.297 4.1839 194.407 4.3406 194.407 4.62267C194.407 4.90474 194.297 5.06144 194.125 5.1868V5.20247Z" fill="#0025DE"/>
<path d="M193.451 0.250488C190.394 0.250488 187.902 2.74208 187.902 5.79781C187.902 8.85354 190.394 11.3451 193.451 11.3451C196.508 11.3451 199 8.85354 199 5.79781C199 2.74208 196.508 0.250488 193.451 0.250488ZM193.451 10.3579C190.943 10.3579 188.889 8.32075 188.889 5.79781C188.889 3.27488 190.927 1.23772 193.451 1.23772C195.975 1.23772 198.012 3.27488 198.012 5.79781C198.012 8.32075 195.975 10.3579 193.451 10.3579Z" fill="#0025DE"/>
<path d="M3.80914 0.313477H0.65837C0.294762 0.313477 0 0.608144 0 0.971634V18.6322C0 18.9957 0.294762 19.2903 0.65837 19.2903H3.80914C4.17274 19.2903 4.46751 18.9957 4.46751 18.6322V0.971634C4.46751 0.608144 4.17274 0.313477 3.80914 0.313477Z" fill="#0025DE"/>
<path d="M27.2598 0.313522H24.2501C23.8896 0.313522 23.5917 0.61126 23.5917 0.971679V11.7999L14.9545 0.564249C14.8291 0.407545 14.641 0.297852 14.4216 0.297852H10.4714C10.1108 0.297852 9.81299 0.595589 9.81299 0.956009V18.6009C9.81299 18.9613 10.1108 19.259 10.4714 19.259H13.481C13.8416 19.259 14.1394 18.9613 14.1394 18.6009V6.44065L23.7955 19.0083C23.9209 19.165 24.109 19.2747 24.3285 19.2747H27.2598C27.6203 19.2747 27.9181 18.977 27.9181 18.6166V0.971679C27.9181 0.61126 27.6203 0.313522 27.2598 0.313522Z" fill="#0025DE"/>
<path d="M41.9632 0.313477H33.9217C33.5611 0.313477 33.2633 0.611214 33.2633 0.971634V18.6165C33.2633 18.9769 33.5611 19.2747 33.9217 19.2747H41.9632C47.9042 19.2747 51.7447 15.5451 51.7447 9.79407C51.7447 4.04303 47.9042 0.313477 41.9632 0.313477ZM37.7308 4.34077H41.634C45.1923 4.34077 47.2301 6.33091 47.2301 9.79407C47.2301 13.2572 45.1923 15.2474 41.634 15.2474H37.7308V4.3251V4.34077Z" fill="#0025DE"/>
<path d="M59.9744 0.313477H56.8237C56.46 0.313477 56.1653 0.608144 56.1653 0.971634V18.6322C56.1653 18.9957 56.46 19.2903 56.8237 19.2903H59.9744C60.338 19.2903 60.6328 18.9957 60.6328 18.6322V0.971634C60.6328 0.608144 60.338 0.313477 59.9744 0.313477Z" fill="#0025DE"/>
<path d="M82.2963 0.313477H66.6521C66.2916 0.313477 65.9938 0.611214 65.9938 0.971634V18.6165C65.9938 18.9769 66.2916 19.2747 66.6521 19.2747H82.2963C82.6568 19.2747 82.9546 18.9769 82.9546 18.6165V15.9212C82.9546 15.5608 82.6568 15.263 82.2963 15.263H70.4456V11.7372H80.6033C80.9638 11.7372 81.2617 11.4395 81.2617 11.079V8.38373C81.2617 8.02332 80.9638 7.72558 80.6033 7.72558H70.4456V4.35644H82.2963C82.6568 4.35644 82.9546 4.0587 82.9546 3.69828V1.00298C82.9546 0.642556 82.6568 0.344818 82.2963 0.344818V0.313477Z" fill="#0025DE"/>
<path d="M119.353 0.313477H116.186C115.889 0.313477 115.638 0.501522 115.544 0.783589L112.205 11.8626L108.756 0.783589C108.662 0.501522 108.411 0.313477 108.114 0.313477H105.308C105.01 0.313477 104.759 0.501522 104.665 0.783589L101.216 11.8626L97.8775 0.783589C97.7991 0.501522 97.5326 0.313477 97.2348 0.313477H93.9429C93.7235 0.313477 93.5354 0.407499 93.41 0.579874C93.2845 0.752248 93.2532 0.971634 93.3159 1.17535L98.8493 18.8202C98.9434 19.1023 99.1942 19.2903 99.492 19.2903H102.611C102.909 19.2903 103.16 19.1023 103.254 18.8202L106.687 7.78826L110.12 18.8202C110.214 19.1023 110.465 19.2903 110.763 19.2903H113.851C114.149 19.2903 114.399 19.1023 114.493 18.8202L120.027 1.17535C120.09 0.971634 120.058 0.752248 119.933 0.579874C119.807 0.407499 119.604 0.313477 119.4 0.313477H119.353Z" fill="#0025DE"/>
<path d="M140.28 0.313477H124.636C124.275 0.313477 123.977 0.611214 123.977 0.971634V18.6165C123.977 18.9769 124.275 19.2747 124.636 19.2747H140.28C140.64 19.2747 140.938 18.9769 140.938 18.6165V15.9212C140.938 15.5608 140.64 15.263 140.28 15.263H128.429V11.7372H138.587C138.947 11.7372 139.245 11.4395 139.245 11.079V8.38373C139.245 8.02332 138.947 7.72558 138.587 7.72558H128.429V4.35644H140.28C140.64 4.35644 140.938 4.0587 140.938 3.69828V1.00298C140.938 0.642556 140.64 0.344818 140.28 0.344818V0.313477Z" fill="#0025DE"/>
<path d="M153.823 7.61582C149.622 7.30241 149.277 6.69126 149.277 5.97042C149.277 4.23101 152.24 4.08998 153.149 4.08998C155.391 4.08998 157.335 4.65411 158.918 5.78238C159.075 5.89207 159.278 5.93908 159.466 5.89207C159.655 5.84506 159.811 5.7197 159.905 5.54732L161.144 3.10274C161.3 2.805 161.206 2.44458 160.94 2.25654C158.808 0.767849 156.206 0 153.181 0C147.898 0 144.747 2.27221 144.747 6.09579C144.747 10.3895 148.086 11.5334 153.102 11.9252C157.319 12.2386 157.679 12.8811 157.679 13.5706C157.679 15.1846 155.312 15.5294 153.337 15.5294C150.767 15.5294 148.368 14.7772 146.377 13.3669C146.221 13.2572 146.033 13.2101 145.844 13.2572C145.656 13.3042 145.5 13.4139 145.406 13.5862L144.057 16.0778C143.901 16.3756 143.979 16.736 144.261 16.9397C146.691 18.6791 149.842 19.6037 153.369 19.6037C161.065 19.6037 162.21 15.7331 162.21 13.4452C162.21 9.15152 158.855 8.00758 153.839 7.61582H153.823Z" fill="#0025DE"/>
<path d="M182.4 0.313477H165.611C165.251 0.313477 164.953 0.611214 164.953 0.971634V3.66694C164.953 4.02736 165.251 4.3251 165.611 4.3251H171.772V18.6008C171.772 18.9613 172.07 19.259 172.43 19.259H175.565C175.926 19.259 176.224 18.9613 176.224 18.6008V4.3251H182.384C182.745 4.3251 183.042 4.02736 183.042 3.66694V0.971634C183.042 0.611214 182.745 0.313477 182.384 0.313477H182.4Z" fill="#0025DE"/>
</svg>
